<svg xmlns="http://www.w3.org/2000/svg" viewBox="0 0 35.16 47.35"><defs><style>.cls-1{fill:#002240;}</style></defs><g id="Ebene_2" data-name="Ebene 2"><g id="Ebene_1-2" data-name="Ebene 1"><polygon class="cls-1" points="22.04 0 13.02 0 8.98 0 8.98 6.35 26.18 6.35 26.18 0 22.04 0"/><path class="cls-1" d="M27.66,3.65V7.84H7.5V3.65H0v43.7H35.16V3.65ZM21.5,34.26a3.07,3.07,0,0,1-3,3.06h-1s-.83,0-1.23,0a3,3,0,0,1-2.61-3.17,6.65,6.65,0,0,0,0-1.19H21.5C21.48,33.37,21.5,33.82,21.5,34.26Zm2.67-7.14c-.81,1.53-1.63,3.06-2.41,4.6a2.27,2.27,0,0,0-.17.5H13.53a6.24,6.24,0,0,0-.74-1.74c-.69-1.14-1.29-2.35-1.88-3.55a7.65,7.65,0,0,1,.89-8.69,7.38,7.38,0,0,1,7.87-2.41,7.42,7.42,0,0,1,5.42,6.28A7.57,7.57,0,0,1,24.17,27.12Z"/><path class="cls-1" d="M17.18,20.27a4.92,4.92,0,0,0-1.88.8,3.26,3.26,0,0,0-1.19,1.64,1.77,1.77,0,0,0,.77,2l.26.11A4.09,4.09,0,0,0,14,27.14a4.37,4.37,0,0,0,.69,2.93.35.35,0,0,0,.29.15.32.32,0,0,0,.19,0,.35.35,0,0,0,.1-.48,3.66,3.66,0,0,1-.58-2.46,3.38,3.38,0,0,1,1-2,1.3,1.3,0,0,0,.73.84A1.59,1.59,0,0,0,17.81,26a4.1,4.1,0,0,0,.84-.53,15.41,15.41,0,0,0,1.21-1.07c.41-.4.8-.83,1.18-1.26L23,21A10.78,10.78,0,0,0,17.18,20.27Z"/></g></g></svg>