<svg xmlns="http://www.w3.org/2000/svg" viewBox="0 0 46.71 47.75"><defs><style>.cls-1{fill:#002240;}</style></defs><g id="Ebene_2" data-name="Ebene 2"><g id="Ebene_1-2" data-name="Ebene 1"><path class="cls-1" d="M33.17,47.69A12.37,12.37,0,0,1,34.34,23a12.24,12.24,0,0,1,3.7.57A17.06,17.06,0,1,0,5.21,17.06c0,.64,0,1.88,0,1.88L0,27.24H3.86V35.1c.31,4.17,5.57,3.4,5.57,3.4h6.34v9.19Z"/><polygon class="cls-1" points="33.74 37.37 28.95 33.42 28.95 37.39 33.87 41.45 40.3 33.74 40.3 29.5 33.74 37.37"/><path class="cls-1" d="M34.34,47.75A12.38,12.38,0,1,1,46.71,35.38,12.39,12.39,0,0,1,34.34,47.75Zm0-22.75A10.38,10.38,0,1,0,44.71,35.38,10.39,10.39,0,0,0,34.34,25Z"/></g></g></svg>