<svg xmlns="http://www.w3.org/2000/svg" viewBox="0 0 47.44 47.85"><defs><style>.cls-1{fill:#002240;}</style></defs><g id="Ebene_2" data-name="Ebene 2"><g id="Ebene_1-2" data-name="Ebene 1"><path class="cls-1" d="M28.63,19.25l8.17,3.34V12.26L0,27.21v3.41L27.88,19.25A1,1,0,0,1,28.63,19.25Z"/><polygon class="cls-1" points="36.8 24.75 29.27 21.67 29.39 47.83 36.8 47.82 36.8 24.75"/><polygon class="cls-1" points="38.8 23.41 47.44 26.94 47.44 15.65 38.8 12.24 38.8 23.41"/><path class="cls-1" d="M37.42,9.85a.88.88,0,0,1,.32-.07h.07a1,1,0,0,1,.34.06h0l9.27,3.66V0L0,19.66v5.39Z"/><polygon class="cls-1" points="38.8 25.57 38.8 47.82 47.44 47.81 47.44 29.1 38.8 25.57"/><path class="cls-1" d="M27.39,47.67c-.2-4.35-2.1-16.69-16.89-19a.56.56,0,0,1-.18-.07L0,32.78V47.85l27.39,0Z"/><path class="cls-1" d="M27.35,38.93l-.08-17.27L13.55,27.25A19.82,19.82,0,0,1,27.35,38.93Z"/></g></g></svg>