<svg xmlns="http://www.w3.org/2000/svg" viewBox="0 0 42.38 46.7"><defs><style>.cls-1{fill:#002240;}</style></defs><g id="Ebene_2" data-name="Ebene 2"><g id="Ebene_1-2" data-name="Ebene 1"><polygon class="cls-1" points="10.85 28.67 20.7 23.2 20.7 12.31 10.85 17.78 10.85 28.67"/><polygon class="cls-1" points="20.17 11.46 10.38 6.02 0.57 11.46 10.37 16.9 20.17 11.46"/><polygon class="cls-1" points="31.53 17.77 21.7 12.31 21.7 23.19 31.53 28.65 31.53 17.77"/><polygon class="cls-1" points="0 23.16 9.85 28.63 9.85 17.77 0 12.29 0 23.16"/><polygon class="cls-1" points="9.85 29.8 0 24.33 0 35.19 9.85 40.66 9.85 29.8"/><polygon class="cls-1" points="21.2 0 11.4 5.44 21.2 10.89 31 5.44 21.2 0"/><polygon class="cls-1" points="32.55 28.64 42.38 23.17 42.38 12.3 32.55 17.76 32.55 28.64"/><polygon class="cls-1" points="32.03 6.02 29.85 7.22 22.23 11.46 32.03 16.9 41.83 11.46 32.03 6.02"/><polygon class="cls-1" points="10.85 41.21 20.68 46.67 20.68 35.8 10.85 30.34 10.85 41.21"/><polygon class="cls-1" points="42.38 24.33 32.53 29.8 32.53 40.68 42.38 35.21 42.38 24.33"/><polygon class="cls-1" points="31.53 30.36 21.7 35.81 21.7 46.7 31.53 41.24 31.53 30.36"/><polygon class="cls-1" points="31 29.5 21.2 24.06 11.42 29.5 21.22 34.94 31 29.5"/></g></g></svg>