<svg xmlns="http://www.w3.org/2000/svg" viewBox="0 0 50.42 47.37"><defs><style>.cls-1{fill:#002240;}</style></defs><g id="Ebene_2" data-name="Ebene 2"><g id="Ebene_1-2" data-name="Ebene 1"><polygon class="cls-1" points="17.82 2.97 23.37 6.68 23.37 11.81 17.82 8.1 17.82 14.67 23.37 18.38 23.37 23.51 17.82 19.8 17.82 31.17 25.11 37.83 32.6 31.38 32.6 25.27 27 28.98 27 23.85 32.6 20.14 32.6 13.87 27 17.59 27 12.46 32.6 8.75 32.6 0 17.82 0 17.82 2.97"/><path class="cls-1" d="M25.47,45.18C12,45.18,7.83,32.86,6.72,28.06H0V47.37H50.42V28.06h-7C42.53,32.85,39,45.18,25.47,45.18Z"/></g></g></svg>