<svg xmlns="http://www.w3.org/2000/svg" viewBox="0 0 47.89 47"><defs><style>.cls-1{fill:#002240;}</style></defs><g id="Ebene_2" data-name="Ebene 2"><g id="Ebene_1-2" data-name="Ebene 1"><path class="cls-1" d="M27.9,14.69l0,.22A12,12,0,0,0,27,11.4L29.8,7.83,27.93,5.46,23.45,6.69l.08.1A12.22,12.22,0,0,0,20.42,5L19.87.44l-3-.44L14.63,4.12A12.32,12.32,0,0,0,11.2,5L7.53,2.24,5.21,4.15,6.52,8.56a11.54,11.54,0,0,0-1.69,2.79L.25,12l-.25,3,3.9,2a12,12,0,0,0,.91,3.69L2,24.44l1.91,2.34,4.44-1.31a11.77,11.77,0,0,0,3.18,1.83l.69,4.55,3,.25L17.36,28a12.05,12.05,0,0,0,3.35-.91l3.94,2.79,2.27-2-1.47-4.4-.22.17a12.08,12.08,0,0,0,1.83-3.14v0l4.8-.82.2-3ZM18.64,16.5a2.65,2.65,0,1,1-2.16-3.06A2.64,2.64,0,0,1,18.64,16.5Z"/><path class="cls-1" d="M44.74,33.82l0,.17A9.06,9.06,0,0,0,44,31.33l2.14-2.7-1.41-1.8-3.39.94,0,.08a9.2,9.2,0,0,0-2.35-1.4L38.66,23,36.4,22.7l-1.7,3.13a9,9,0,0,0-2.6.67l-2.77-2.1-1.77,1.45,1,3.33a9.21,9.21,0,0,0-1.28,2.11l-3.47.53-.18,2.28,2.95,1.54a8.86,8.86,0,0,0,.69,2.79L25.15,41.2,26.6,43,30,42a9.25,9.25,0,0,0,2.41,1.39l.52,3.44,2.28.19,1.61-3.08a8.9,8.9,0,0,0,2.53-.7l3,2.12L44,43.83,42.89,40.5l-.17.13a9.18,9.18,0,0,0,1.39-2.37v0l3.64-.62.15-2.28ZM38.37,35.3a2.65,2.65,0,1,1-2.17-3.06A2.66,2.66,0,0,1,38.37,35.3Z"/></g></g></svg>