<svg xmlns="http://www.w3.org/2000/svg" viewBox="0 0 35.16 47.35"><defs><style>.cls-1{fill:#002240;}</style></defs><g id="Ebene_2" data-name="Ebene 2"><g id="Ebene_1-2" data-name="Ebene 1"><polygon class="cls-1" points="22.04 0 13.02 0 8.98 0 8.98 6.35 26.18 6.35 26.18 0 22.04 0"/><path class="cls-1" d="M27.66,3.65V7.84H7.5V3.65H0v43.7H35.16V3.65ZM15.48,20.24A1.23,1.23,0,0,1,16.71,19h1.72a1.24,1.24,0,0,1,1.24,1.23v6.54A1.24,1.24,0,0,1,18.43,28H16.71a1.24,1.24,0,0,1-1.23-1.23Zm-4.91,2.08v6.37a.39.39,0,0,0,.36.41.38.38,0,0,0,.35-.41v-6.9a11.29,11.29,0,0,1,3.56-1.53V27.4a1.25,1.25,0,0,0,1.24,1.24h3a1.25,1.25,0,0,0,1.24-1.24V20.25a11.25,11.25,0,0,1,3.42,1.43v7a.36.36,0,1,0,.72,0v-6.5c4.39,3.37,4.37,9.21,4.37,9.21L17.59,30.17,6.36,31.4S6.35,25.71,10.57,22.32ZM28.23,33.53l-10.63,0h0l-10.63,0s-1.37.2-1.15-1.4L17.58,31l11.79,1.18C29.59,33.73,28.23,33.53,28.23,33.53Z"/></g></g></svg>