<svg xmlns="http://www.w3.org/2000/svg" viewBox="0 0 47.34 47.37"><defs><style>.cls-1{fill:#002240;}</style></defs><g id="Ebene_2" data-name="Ebene 2"><g id="Ebene_1-2" data-name="Ebene 1"><path class="cls-1" d="M39.48,23.86c.14-8.45,5.86-15,7.44-16.63l.42-.43L46,5.39c0,.05-.28.27-.63.64L29,22.45l-4.17-4.17L41.65,1.42l0,0L40.29,0c-6.86,6.86-14.59,9-23,6.25A31.08,31.08,0,0,1,6.51,0L5.14,1.4,46,42.22l.69-.69h0l.69-.7C42,35.51,39.37,29.8,39.48,23.86Z"/><path class="cls-1" d="M1.38,5.15l-.69.69h0L0,6.53c5.32,5.33,8,11,7.87,17C7.72,32,1.93,38.58.39,40.17l-.39.4L1.36,42s.26-.25.59-.6L18.41,24.94l4.15,4.15L5.69,46l0,0,.69.69h0l.7.7c6.85-6.86,14.59-9,23-6.26a31.24,31.24,0,0,1,10.8,6.27L42.21,46,1.4,5.17Z"/></g></g></svg>