<svg xmlns="http://www.w3.org/2000/svg" viewBox="0 0 61.54 46.33"><defs><style>.cls-1{fill:#002240;}</style></defs><g id="Ebene_2" data-name="Ebene 2"><g id="Ebene_1-2" data-name="Ebene 1"><path class="cls-1" d="M0,0V46.33H61.54V0ZM33,37.35a.5.5,0,1,1-1,0V16.92L27.9,14.3v23a.51.51,0,0,1-.5.5H9.68a.51.51,0,0,1-.36-.15.48.48,0,0,1-.14-.36l.11-17.74A.51.51,0,0,1,9.63,19l17.6-6.13h0a.41.41,0,0,1,.16,0h.06a.49.49,0,0,1,.19.07l5.08,3.27a.5.5,0,0,1,.23.42Zm19.2-.19a.5.5,0,0,1-.5.5.5.5,0,0,1-.5-.5V11.3L46.91,8.65V37.16a.48.48,0,0,1-.15.36.5.5,0,0,1-.35.14h0l-10.71-.18a.49.49,0,0,1-.49-.5V12.11a.49.49,0,0,1,.31-.46L46.22,7.29h0l.16,0h.06a.53.53,0,0,1,.2.07l5.26,3.27a.49.49,0,0,1,.24.42Z"/></g></g></svg>